<svg width="80" height="101" viewBox="0 0 80 101" fill="none" xmlns="http://www.w3.org/2000/svg">

  <!-- Body -->
  <ellipse cx="40" cy="62" rx="22" ry="19" fill="#4A3828"/>
  <!-- Head -->
  <circle cx="42" cy="36" r="16" fill="#4A3828"/>

  <!-- Red breast -->
  <path d="M22 44 Q18 54 22 65 Q28 74 42 73 Q54 71 58 62 Q62 52 56 44 Q50 36 42 38 Q30 38 22 44Z" fill="#C8400E"/>
  <!-- Breast highlight -->
  <path d="M28 46 Q24 54 28 62 Q34 70 44 69 Q50 67 52 62 Q46 48 38 44 Q32 42 28 46Z" fill="#D8501A" opacity="0.5"/>

  <!-- Wing -->
  <path d="M20 58 Q12 64 14 76 Q24 70 40 72" fill="#3A2818"/>
  <path d="M20 60 Q14 66 16 74" stroke="#5A4030" stroke-width="1" fill="none"/>
  <path d="M24 62 Q19 67 21 73" stroke="#5A4030" stroke-width="0.9" fill="none"/>
  <path d="M28 63 Q24 68 26 73" stroke="#5A4030" stroke-width="0.9" fill="none"/>

  <!-- Tail -->
  <path d="M18 74 Q10 80 12 90 Q20 84 32 82 Q26 78 22 74Z" fill="#3A2818"/>
  <path d="M14 80 Q12 86 13 90" stroke="#5A4030" stroke-width="0.8" fill="none"/>
  <path d="M18 79 Q17 84 18 88" stroke="#5A4030" stroke-width="0.8" fill="none"/>
  <path d="M22 78 Q22 83 24 86" stroke="#5A4030" stroke-width="0.8" fill="none"/>

  <!-- Belly -->
  <ellipse cx="44" cy="68" rx="8" ry="7" fill="#E8D8C0"/>

  <!-- Eye -->
  <circle cx="50" cy="32" r="5" fill="#1A1208"/>
  <circle cx="50" cy="32" r="3.2" fill="#2A1A08"/>
  <circle cx="51.4" cy="30.6" r="1.4" fill="white"/>
  <circle cx="49" cy="33.5" r="0.6" fill="white" opacity="0.5"/>

  <!-- Beak -->
  <path d="M56 33 L68 30 L56 38 Z" fill="#3A3020"/>
  <line x1="56" y1="33" x2="68" y2="30" stroke="#2A2010" stroke-width="0.6"/>

  <!-- Legs -->
  <line x1="40" y1="82" x2="34" y2="95" stroke="#3A2818" stroke-width="1.8" stroke-linecap="round"/>
  <line x1="46" y1="82" x2="52" y2="95" stroke="#3A2818" stroke-width="1.8" stroke-linecap="round"/>

  <!-- Feet -->
  <path d="M31 95 L28 101 M34 95 L34 101 M37 95 L40 101" stroke="#3A2818" stroke-width="1.5" stroke-linecap="round"/>
  <path d="M49 95 L46 101 M52 95 L52 101 M55 95 L58 101" stroke="#3A2818" stroke-width="1.5" stroke-linecap="round"/>

  <!-- Branch -->
  <path d="M4 98 Q40 93 76 98" stroke="#9A8060" stroke-width="5" stroke-linecap="round" fill="none"/>
  <path d="M4 97 Q40 92 76 97" stroke="#B89870" stroke-width="2" stroke-linecap="round" fill="none" opacity="0.5"/>
  <path d="M16 96 Q28 94 38 96" stroke="#C8A880" stroke-width="0.8" stroke-linecap="round" fill="none" opacity="0.6"/>
  <path d="M46 95 Q58 93 68 96" stroke="#C8A880" stroke-width="0.8" stroke-linecap="round" fill="none" opacity="0.6"/>

</svg>
